<svg xmlns="http://www.w3.org/2000/svg" xmlns:xlink="http://www.w3.org/1999/xlink" width="860" height="85.13"><rect width="860" height="85.13" rx="0" ry="0" class="a"/><svg height="65.13" viewBox="0 0 84 6.513" width="840" x="10" xmlns="http://www.w3.org/2000/svg" xmlns:xlink="http://www.w3.org/1999/xlink" y="10"><style>@keyframes d{0%{transform:translateX(0)}4.2%{transform:translateX(-84px)}7.3%{transform:translateX(-168px)}10.4%{transform:translateX(-252px)}13.5%{transform:translateX(-336px)}16.5%{transform:translateX(-420px)}19.6%{transform:translateX(-504px)}22.7%{transform:translateX(-588px)}25.8%{transform:translateX(-672px)}28.8%{transform:translateX(-756px)}32%{transform:translateX(-840px)}35.1%{transform:translateX(-924px)}38.2%{transform:translateX(-1008px)}41.3%{transform:translateX(-1092px)}44.3%{transform:translateX(-1176px)}47.4%{transform:translateX(-1260px)}50.5%{transform:translateX(-1344px)}53.6%{transform:translateX(-1428px)}56.6%{transform:translateX(-1512px)}59.7%{transform:translateX(-1596px)}62.8%{transform:translateX(-1680px)}65.9%{transform:translateX(-1764px)}69%{transform:translateX(-1848px)}72.1%{transform:translateX(-1932px)}75.2%{transform:translateX(-2016px)}78.3%{transform:translateX(-2100px)}81.4%{transform:translateX(-2184px)}84.5%{transform:translateX(-2268px)}87.6%{transform:translateX(-2352px)}90.7%{transform:translateX(-2436px)}93.8%{transform:translateX(-2520px)}96.9%{transform:translateX(-2604px)}to{transform:translateX(-2688px)}}.a{fill:#000}.f{fill:#f2f2f2}</style><g font-size="1.67" font-family="Monaco,Consolas,Menlo,'Bitstream Vera Sans Mono','Powerline Symbols',monospace"><defs><symbol id="a"><path fill="transparent" d="M0 0h84v4H0z"/></symbol></defs><path class="a" d="M0 0h84v6.513H0z"/><g style="animation-duration:8.20227s;animation-iteration-count:infinite;animation-name:d;animation-timing-function:steps(1,end)"><svg width="2772"><svg><use xlink:href="#a"/></svg><svg x="84"><use xlink:href="#a"/><text y="1.67" class="f">default</text><text x="8.016" y="1.67" class="f">progress</text><text x="17.034" y="1.67" class="f">bar:</text><text x="22.044" y="1.67" class="f">=-------------------------------------------------</text><text y="3.841" class="f">but</text><text x="4.008" y="3.841" class="f">you</text><text x="8.016" y="3.841" class="f">can</text><text x="12.024" y="3.841" class="f">style</text><text x="18.036" y="3.841" class="f">it:</text><text x="22.044" y="3.841" class="f">&gt;-------------------------------------------------</text><text y="6.012" class="f">in</text><text x="3.006" y="6.012" class="f">any</text><text x="7.014" y="6.012" class="f">way</text><text x="11.022" y="6.012" class="f">you</text><text x="15.03" y="6.012" class="f">want:</text><text x="22.044" y="6.012" class="f">[#</text><text x="71.142" y="6.012" class="f">]</text><text x="73.146" y="6.012" class="f">(32/1024)</text></svg><svg x="168"><use xlink:href="#a"/><text y="1.67" class="f">default</text><text x="8.016" y="1.67" class="f">progress</text><text x="17.034" y="1.67" class="f">bar:</text><text x="22.044" y="1.67" class="f">===-----------------------------------------------</text><text y="3.841" class="f">but</text><text x="4.008" y="3.841" class="f">you</text><text x="8.016" y="3.841" class="f">can</text><text x="12.024" y="3.841" class="f">style</text><text x="18.036" y="3.841" class="f">it:</text><text x="22.044" y="3.841" class="f">==&gt;-----------------------------------------------</text><text y="6.012" class="f">in</text><text x="3.006" y="6.012" class="f">any</text><text x="7.014" y="6.012" class="f">way</text><text x="11.022" y="6.012" class="f">you</text><text x="15.03" y="6.012" class="f">want:</text><text x="22.044" y="6.012" class="f">[###</text><text x="71.142" y="6.012" class="f">]</text><text x="73.146" y="6.012" class="f">(64/1024)</text></svg><svg x="252"><use xlink:href="#a"/><text y="1.67" class="f">default</text><text x="8.016" y="1.67" class="f">progress</text><text x="17.034" y="1.67" class="f">bar:</text><text x="22.044" y="1.67" class="f">====----------------------------------------------</text><text y="3.841" class="f">but</text><text x="4.008" y="3.841" class="f">you</text><text x="8.016" y="3.841" class="f">can</text><text x="12.024" y="3.841" class="f">style</text><text x="18.036" y="3.841" class="f">it:</text><text x="22.044" y="3.841" class="f">===&gt;----------------------------------------------</text><text y="6.012" class="f">in</text><text x="3.006" y="6.012" class="f">any</text><text x="7.014" y="6.012" class="f">way</text><text x="11.022" y="6.012" class="f">you</text><text x="15.03" y="6.012" class="f">want:</text><text x="22.044" y="6.012" class="f">[####</text><text x="71.142" y="6.012" class="f">]</text><text x="73.146" y="6.012" class="f">(96/1024)</text></svg><svg x="336"><use xlink:href="#a"/><text y="1.67" class="f">default</text><text x="8.016" y="1.67" class="f">progress</text><text x="17.034" y="1.67" class="f">bar:</text><text x="22.044" y="1.67" class="f">======--------------------------------------------</text><text y="3.841" class="f">but</text><text x="4.008" y="3.841" class="f">you</text><text x="8.016" y="3.841" class="f">can</text><text x="12.024" y="3.841" class="f">style</text><text x="18.036" y="3.841" class="f">it:</text><text x="22.044" y="3.841" class="f">=====&gt;--------------------------------------------</text><text y="6.012" class="f">in</text><text x="3.006" y="6.012" class="f">any</text><text x="7.014" y="6.012" class="f">way</text><text x="11.022" y="6.012" class="f">you</text><text x="15.03" y="6.012" class="f">want:</text><text x="22.044" y="6.012" class="f">[######</text><text x="71.142" y="6.012" class="f">]</text><text x="73.146" y="6.012" class="f">(128/1024)</text></svg><svg x="420"><use xlink:href="#a"/><text y="1.67" class="f">default</text><text x="8.016" y="1.67" class="f">progress</text><text x="17.034" y="1.67" class="f">bar:</text><text x="22.044" y="1.67" class="f">=======-------------------------------------------</text><text y="3.841" class="f">but</text><text x="4.008" y="3.841" class="f">you</text><text x="8.016" y="3.841" class="f">can</text><text x="12.024" y="3.841" class="f">style</text><text x="18.036" y="3.841" class="f">it:</text><text x="22.044" y="3.841" class="f">======&gt;-------------------------------------------</text><text y="6.012" class="f">in</text><text x="3.006" y="6.012" class="f">any</text><text x="7.014" y="6.012" class="f">way</text><text x="11.022" y="6.012" class="f">you</text><text x="15.03" y="6.012" class="f">want:</text><text x="22.044" y="6.012" class="f">[#######</text><text x="71.142" y="6.012" class="f">]</text><text x="73.146" y="6.012" class="f">(160/1024)</text></svg><svg x="504"><use xlink:href="#a"/><text y="1.67" class="f">default</text><text x="8.016" y="1.67" class="f">progress</text><text x="17.034" y="1.67" class="f">bar:</text><text x="22.044" y="1.67" class="f">=========-----------------------------------------</text><text y="3.841" class="f">but</text><text x="4.008" y="3.841" class="f">you</text><text x="8.016" y="3.841" class="f">can</text><text x="12.024" y="3.841" class="f">style</text><text x="18.036" y="3.841" class="f">it:</text><text x="22.044" y="3.841" class="f">========&gt;-----------------------------------------</text><text y="6.012" class="f">in</text><text x="3.006" y="6.012" class="f">any</text><text x="7.014" y="6.012" class="f">way</text><text x="11.022" y="6.012" class="f">you</text><text x="15.03" y="6.012" class="f">want:</text><text x="22.044" y="6.012" class="f">[#########</text><text x="71.142" y="6.012" class="f">]</text><text x="73.146" y="6.012" class="f">(192/1024)</text></svg><svg x="588"><use xlink:href="#a"/><text y="1.67" class="f">default</text><text x="8.016" y="1.67" class="f">progress</text><text x="17.034" y="1.67" class="f">bar:</text><text x="22.044" y="1.67" class="f">==========----------------------------------------</text><text y="3.841" class="f">but</text><text x="4.008" y="3.841" class="f">you</text><text x="8.016" y="3.841" class="f">can</text><text x="12.024" y="3.841" class="f">style</text><text x="18.036" y="3.841" class="f">it:</text><text x="22.044" y="3.841" class="f">=========&gt;----------------------------------------</text><text y="6.012" class="f">in</text><text x="3.006" y="6.012" class="f">any</text><text x="7.014" y="6.012" class="f">way</text><text x="11.022" y="6.012" class="f">you</text><text x="15.03" y="6.012" class="f">want:</text><text x="22.044" y="6.012" class="f">[##########</text><text x="71.142" y="6.012" class="f">]</text><text x="73.146" y="6.012" class="f">(224/1024)</text></svg><svg x="672"><use xlink:href="#a"/><text y="1.67" class="f">default</text><text x="8.016" y="1.67" class="f">progress</text><text x="17.034" y="1.67" class="f">bar:</text><text x="22.044" y="1.67" class="f">============--------------------------------------</text><text y="3.841" class="f">but</text><text x="4.008" y="3.841" class="f">you</text><text x="8.016" y="3.841" class="f">can</text><text x="12.024" y="3.841" class="f">style</text><text x="18.036" y="3.841" class="f">it:</text><text x="22.044" y="3.841" class="f">===========&gt;--------------------------------------</text><text y="6.012" class="f">in</text><text x="3.006" y="6.012" class="f">any</text><text x="7.014" y="6.012" class="f">way</text><text x="11.022" y="6.012" class="f">you</text><text x="15.03" y="6.012" class="f">want:</text><text x="22.044" y="6.012" class="f">[############</text><text x="71.142" y="6.012" class="f">]</text><text x="73.146" y="6.012" class="f">(256/1024)</text></svg><svg x="756"><use xlink:href="#a"/><text y="1.67" class="f">default</text><text x="8.016" y="1.67" class="f">progress</text><text x="17.034" y="1.67" class="f">bar:</text><text x="22.044" y="1.67" class="f">==============------------------------------------</text><text y="3.841" class="f">but</text><text x="4.008" y="3.841" class="f">you</text><text x="8.016" y="3.841" class="f">can</text><text x="12.024" y="3.841" class="f">style</text><text x="18.036" y="3.841" class="f">it:</text><text x="22.044" y="3.841" class="f">=============&gt;------------------------------------</text><text y="6.012" class="f">in</text><text x="3.006" y="6.012" class="f">any</text><text x="7.014" y="6.012" class="f">way</text><text x="11.022" y="6.012" class="f">you</text><text x="15.03" y="6.012" class="f">want:</text><text x="22.044" y="6.012" class="f">[#############</text><text x="71.142" y="6.012" class="f">]</text><text x="73.146" y="6.012" class="f">(288/1024)</text></svg><svg x="840"><use xlink:href="#a"/><text y="1.67" class="f">default</text><text x="8.016" y="1.67" class="f">progress</text><text x="17.034" y="1.67" class="f">bar:</text><text x="22.044" y="1.67" class="f">===============-----------------------------------</text><text y="3.841" class="f">but</text><text x="4.008" y="3.841" class="f">you</text><text x="8.016" y="3.841" class="f">can</text><text x="12.024" y="3.841" class="f">style</text><text x="18.036" y="3.841" class="f">it:</text><text x="22.044" y="3.841" class="f">==============&gt;-----------------------------------</text><text y="6.012" class="f">in</text><text x="3.006" y="6.012" class="f">any</text><text x="7.014" y="6.012" class="f">way</text><text x="11.022" y="6.012" class="f">you</text><text x="15.03" y="6.012" class="f">want:</text><text x="22.044" y="6.012" class="f">[###############</text><text x="71.142" y="6.012" class="f">]</text><text x="73.146" y="6.012" class="f">(320/1024)</text></svg><svg x="924"><use xlink:href="#a"/><text y="1.67" class="f">default</text><text x="8.016" y="1.67" class="f">progress</text><text x="17.034" y="1.67" class="f">bar:</text><text x="22.044" y="1.67" class="f">=================---------------------------------</text><text y="3.841" class="f">but</text><text x="4.008" y="3.841" class="f">you</text><text x="8.016" y="3.841" class="f">can</text><text x="12.024" y="3.841" class="f">style</text><text x="18.036" y="3.841" class="f">it:</text><text x="22.044" y="3.841" class="f">================&gt;---------------------------------</text><text y="6.012" class="f">in</text><text x="3.006" y="6.012" class="f">any</text><text x="7.014" y="6.012" class="f">way</text><text x="11.022" y="6.012" class="f">you</text><text x="15.03" y="6.012" class="f">want:</text><text x="22.044" y="6.012" class="f">[################</text><text x="71.142" y="6.012" class="f">]</text><text x="73.146" y="6.012" class="f">(352/1024)</text></svg><svg x="1008"><use xlink:href="#a"/><text y="1.67" class="f">default</text><text x="8.016" y="1.67" class="f">progress</text><text x="17.034" y="1.67" class="f">bar:</text><text x="22.044" y="1.67" class="f">==================--------------------------------</text><text y="3.841" class="f">but</text><text x="4.008" y="3.841" class="f">you</text><text x="8.016" y="3.841" class="f">can</text><text x="12.024" y="3.841" class="f">style</text><text x="18.036" y="3.841" class="f">it:</text><text x="22.044" y="3.841" class="f">=================&gt;--------------------------------</text><text y="6.012" class="f">in</text><text x="3.006" y="6.012" class="f">any</text><text x="7.014" y="6.012" class="f">way</text><text x="11.022" y="6.012" class="f">you</text><text x="15.03" y="6.012" class="f">want:</text><text x="22.044" y="6.012" class="f">[##################</text><text x="71.142" y="6.012" class="f">]</text><text x="73.146" y="6.012" class="f">(384/1024)</text></svg><svg x="1092"><use xlink:href="#a"/><text y="1.67" class="f">default</text><text x="8.016" y="1.67" class="f">progress</text><text x="17.034" y="1.67" class="f">bar:</text><text x="22.044" y="1.67" class="f">====================------------------------------</text><text y="3.841" class="f">but</text><text x="4.008" y="3.841" class="f">you</text><text x="8.016" y="3.841" class="f">can</text><text x="12.024" y="3.841" class="f">style</text><text x="18.036" y="3.841" class="f">it:</text><text x="22.044" y="3.841" class="f">===================&gt;------------------------------</text><text y="6.012" class="f">in</text><text x="3.006" y="6.012" class="f">any</text><text x="7.014" y="6.012" class="f">way</text><text x="11.022" y="6.012" class="f">you</text><text x="15.03" y="6.012" class="f">want:</text><text x="22.044" y="6.012" class="f">[###################</text><text x="71.142" y="6.012" class="f">]</text><text x="73.146" y="6.012" class="f">(416/1024)</text></svg><svg x="1176"><use xlink:href="#a"/><text y="1.67" class="f">default</text><text x="8.016" y="1.67" class="f">progress</text><text x="17.034" y="1.67" class="f">bar:</text><text x="22.044" y="1.67" class="f">=====================-----------------------------</text><text y="3.841" class="f">but</text><text x="4.008" y="3.841" class="f">you</text><text x="8.016" y="3.841" class="f">can</text><text x="12.024" y="3.841" class="f">style</text><text x="18.036" y="3.841" class="f">it:</text><text x="22.044" y="3.841" class="f">====================&gt;-----------------------------</text><text y="6.012" class="f">in</text><text x="3.006" y="6.012" class="f">any</text><text x="7.014" y="6.012" class="f">way</text><text x="11.022" y="6.012" class="f">you</text><text x="15.03" y="6.012" class="f">want:</text><text x="22.044" y="6.012" class="f">[#####################</text><text x="71.142" y="6.012" class="f">]</text><text x="73.146" y="6.012" class="f">(448/1024)</text></svg><svg x="1260"><use xlink:href="#a"/><text y="1.67" class="f">default</text><text x="8.016" y="1.67" class="f">progress</text><text x="17.034" y="1.67" class="f">bar:</text><text x="22.044" y="1.67" class="f">=======================---------------------------</text><text y="3.841" class="f">but</text><text x="4.008" y="3.841" class="f">you</text><text x="8.016" y="3.841" class="f">can</text><text x="12.024" y="3.841" class="f">style</text><text x="18.036" y="3.841" class="f">it:</text><text x="22.044" y="3.841" class="f">======================&gt;---------------------------</text><text y="6.012" class="f">in</text><text x="3.006" y="6.012" class="f">any</text><text x="7.014" y="6.012" class="f">way</text><text x="11.022" y="6.012" class="f">you</text><text x="15.03" y="6.012" class="f">want:</text><text x="22.044" y="6.012" class="f">[######################</text><text x="71.142" y="6.012" class="f">]</text><text x="73.146" y="6.012" class="f">(480/1024)</text></svg><svg x="1344"><use xlink:href="#a"/><text y="1.67" class="f">default</text><text x="8.016" y="1.67" class="f">progress</text><text x="17.034" y="1.67" class="f">bar:</text><text x="22.044" y="1.67" class="f">=========================-------------------------</text><text y="3.841" class="f">but</text><text x="4.008" y="3.841" class="f">you</text><text x="8.016" y="3.841" class="f">can</text><text x="12.024" y="3.841" class="f">style</text><text x="18.036" y="3.841" class="f">it:</text><text x="22.044" y="3.841" class="f">========================&gt;-------------------------</text><text y="6.012" class="f">in</text><text x="3.006" y="6.012" class="f">any</text><text x="7.014" y="6.012" class="f">way</text><text x="11.022" y="6.012" class="f">you</text><text x="15.03" y="6.012" class="f">want:</text><text x="22.044" y="6.012" class="f">[########################</text><text x="71.142" y="6.012" class="f">]</text><text x="73.146" y="6.012" class="f">(512/1024)</text></svg><svg x="1428"><use xlink:href="#a"/><text y="1.67" class="f">default</text><text x="8.016" y="1.67" class="f">progress</text><text x="17.034" y="1.67" class="f">bar:</text><text x="22.044" y="1.67" class="f">==========================------------------------</text><text y="3.841" class="f">but</text><text x="4.008" y="3.841" class="f">you</text><text x="8.016" y="3.841" class="f">can</text><text x="12.024" y="3.841" class="f">style</text><text x="18.036" y="3.841" class="f">it:</text><text x="22.044" y="3.841" class="f">=========================&gt;------------------------</text><text y="6.012" class="f">in</text><text x="3.006" y="6.012" class="f">any</text><text x="7.014" y="6.012" class="f">way</text><text x="11.022" y="6.012" class="f">you</text><text x="15.03" y="6.012" class="f">want:</text><text x="22.044" y="6.012" class="f">[#########################</text><text x="71.142" y="6.012" class="f">]</text><text x="73.146" y="6.012" class="f">(544/1024)</text></svg><svg x="1512"><use xlink:href="#a"/><text y="1.67" class="f">default</text><text x="8.016" y="1.67" class="f">progress</text><text x="17.034" y="1.67" class="f">bar:</text><text x="22.044" y="1.67" class="f">============================----------------------</text><text y="3.841" class="f">but</text><text x="4.008" y="3.841" class="f">you</text><text x="8.016" y="3.841" class="f">can</text><text x="12.024" y="3.841" class="f">style</text><text x="18.036" y="3.841" class="f">it:</text><text x="22.044" y="3.841" class="f">===========================&gt;----------------------</text><text y="6.012" class="f">in</text><text x="3.006" y="6.012" class="f">any</text><text x="7.014" y="6.012" class="f">way</text><text x="11.022" y="6.012" class="f">you</text><text x="15.03" y="6.012" class="f">want:</text><text x="22.044" y="6.012" class="f">[###########################</text><text x="71.142" y="6.012" class="f">]</text><text x="73.146" y="6.012" class="f">(576/1024)</text></svg><svg x="1596"><use xlink:href="#a"/><text y="1.67" class="f">default</text><text x="8.016" y="1.67" class="f">progress</text><text x="17.034" y="1.67" class="f">bar:</text><text x="22.044" y="1.67" class="f">=============================---------------------</text><text y="3.841" class="f">but</text><text x="4.008" y="3.841" class="f">you</text><text x="8.016" y="3.841" class="f">can</text><text x="12.024" y="3.841" class="f">style</text><text x="18.036" y="3.841" class="f">it:</text><text x="22.044" y="3.841" class="f">============================&gt;---------------------</text><text y="6.012" class="f">in</text><text x="3.006" y="6.012" class="f">any</text><text x="7.014" y="6.012" class="f">way</text><text x="11.022" y="6.012" class="f">you</text><text x="15.03" y="6.012" class="f">want:</text><text x="22.044" y="6.012" class="f">[############################</text><text x="71.142" y="6.012" class="f">]</text><text x="73.146" y="6.012" class="f">(608/1024)</text></svg><svg x="1680"><use xlink:href="#a"/><text y="1.67" class="f">default</text><text x="8.016" y="1.67" class="f">progress</text><text x="17.034" y="1.67" class="f">bar:</text><text x="22.044" y="1.67" class="f">===============================-------------------</text><text y="3.841" class="f">but</text><text x="4.008" y="3.841" class="f">you</text><text x="8.016" y="3.841" class="f">can</text><text x="12.024" y="3.841" class="f">style</text><text x="18.036" y="3.841" class="f">it:</text><text x="22.044" y="3.841" class="f">==============================&gt;-------------------</text><text y="6.012" class="f">in</text><text x="3.006" y="6.012" class="f">any</text><text x="7.014" y="6.012" class="f">way</text><text x="11.022" y="6.012" class="f">you</text><text x="15.03" y="6.012" class="f">want:</text><text x="22.044" y="6.012" class="f">[##############################</text><text x="71.142" y="6.012" class="f">]</text><text x="73.146" y="6.012" class="f">(640/1024)</text></svg><svg x="1764"><use xlink:href="#a"/><text y="1.67" class="f">default</text><text x="8.016" y="1.67" class="f">progress</text><text x="17.034" y="1.67" class="f">bar:</text><text x="22.044" y="1.67" class="f">================================------------------</text><text y="3.841" class="f">but</text><text x="4.008" y="3.841" class="f">you</text><text x="8.016" y="3.841" class="f">can</text><text x="12.024" y="3.841" class="f">style</text><text x="18.036" y="3.841" class="f">it:</text><text x="22.044" y="3.841" class="f">===============================&gt;------------------</text><text y="6.012" class="f">in</text><text x="3.006" y="6.012" class="f">any</text><text x="7.014" y="6.012" class="f">way</text><text x="11.022" y="6.012" class="f">you</text><text x="15.03" y="6.012" class="f">want:</text><text x="22.044" y="6.012" class="f">[###############################</text><text x="71.142" y="6.012" class="f">]</text><text x="73.146" y="6.012" class="f">(672/1024)</text></svg><svg x="1848"><use xlink:href="#a"/><text y="1.67" class="f">default</text><text x="8.016" y="1.67" class="f">progress</text><text x="17.034" y="1.67" class="f">bar:</text><text x="22.044" y="1.67" class="f">==================================----------------</text><text y="3.841" class="f">but</text><text x="4.008" y="3.841" class="f">you</text><text x="8.016" y="3.841" class="f">can</text><text x="12.024" y="3.841" class="f">style</text><text x="18.036" y="3.841" class="f">it:</text><text x="22.044" y="3.841" class="f">=================================&gt;----------------</text><text y="6.012" class="f">in</text><text x="3.006" y="6.012" class="f">any</text><text x="7.014" y="6.012" class="f">way</text><text x="11.022" y="6.012" class="f">you</text><text x="15.03" y="6.012" class="f">want:</text><text x="22.044" y="6.012" class="f">[#################################</text><text x="71.142" y="6.012" class="f">]</text><text x="73.146" y="6.012" class="f">(704/1024)</text></svg><svg x="1932"><use xlink:href="#a"/><text y="1.67" class="f">default</text><text x="8.016" y="1.67" class="f">progress</text><text x="17.034" y="1.67" class="f">bar:</text><text x="22.044" y="1.67" class="f">===================================---------------</text><text y="3.841" class="f">but</text><text x="4.008" y="3.841" class="f">you</text><text x="8.016" y="3.841" class="f">can</text><text x="12.024" y="3.841" class="f">style</text><text x="18.036" y="3.841" class="f">it:</text><text x="22.044" y="3.841" class="f">==================================&gt;---------------</text><text y="6.012" class="f">in</text><text x="3.006" y="6.012" class="f">any</text><text x="7.014" y="6.012" class="f">way</text><text x="11.022" y="6.012" class="f">you</text><text x="15.03" y="6.012" class="f">want:</text><text x="22.044" y="6.012" class="f">[##################################</text><text x="71.142" y="6.012" class="f">]</text><text x="73.146" y="6.012" class="f">(736/1024)</text></svg><svg x="2016"><use xlink:href="#a"/><text y="1.67" class="f">default</text><text x="8.016" y="1.67" class="f">progress</text><text x="17.034" y="1.67" class="f">bar:</text><text x="22.044" y="1.67" class="f">=====================================-------------</text><text y="3.841" class="f">but</text><text x="4.008" y="3.841" class="f">you</text><text x="8.016" y="3.841" class="f">can</text><text x="12.024" y="3.841" class="f">style</text><text x="18.036" y="3.841" class="f">it:</text><text x="22.044" y="3.841" class="f">====================================&gt;-------------</text><text y="6.012" class="f">in</text><text x="3.006" y="6.012" class="f">any</text><text x="7.014" y="6.012" class="f">way</text><text x="11.022" y="6.012" class="f">you</text><text x="15.03" y="6.012" class="f">want:</text><text x="22.044" y="6.012" class="f">[####################################</text><text x="71.142" y="6.012" class="f">]</text><text x="73.146" y="6.012" class="f">(768/1024)</text></svg><svg x="2100"><use xlink:href="#a"/><text y="1.67" class="f">default</text><text x="8.016" y="1.67" class="f">progress</text><text x="17.034" y="1.67" class="f">bar:</text><text x="22.044" y="1.67" class="f">=======================================-----------</text><text y="3.841" class="f">but</text><text x="4.008" y="3.841" class="f">you</text><text x="8.016" y="3.841" class="f">can</text><text x="12.024" y="3.841" class="f">style</text><text x="18.036" y="3.841" class="f">it:</text><text x="22.044" y="3.841" class="f">======================================&gt;-----------</text><text y="6.012" class="f">in</text><text x="3.006" y="6.012" class="f">any</text><text x="7.014" y="6.012" class="f">way</text><text x="11.022" y="6.012" class="f">you</text><text x="15.03" y="6.012" class="f">want:</text><text x="22.044" y="6.012" class="f">[#####################################</text><text x="71.142" y="6.012" class="f">]</text><text x="73.146" y="6.012" class="f">(800/1024)</text></svg><svg x="2184"><use xlink:href="#a"/><text y="1.67" class="f">default</text><text x="8.016" y="1.67" class="f">progress</text><text x="17.034" y="1.67" class="f">bar:</text><text x="22.044" y="1.67" class="f">========================================----------</text><text y="3.841" class="f">but</text><text x="4.008" y="3.841" class="f">you</text><text x="8.016" y="3.841" class="f">can</text><text x="12.024" y="3.841" class="f">style</text><text x="18.036" y="3.841" class="f">it:</text><text x="22.044" y="3.841" class="f">=======================================&gt;----------</text><text y="6.012" class="f">in</text><text x="3.006" y="6.012" class="f">any</text><text x="7.014" y="6.012" class="f">way</text><text x="11.022" y="6.012" class="f">you</text><text x="15.03" y="6.012" class="f">want:</text><text x="22.044" y="6.012" class="f">[#######################################</text><text x="71.142" y="6.012" class="f">]</text><text x="73.146" y="6.012" class="f">(832/1024)</text></svg><svg x="2268"><use xlink:href="#a"/><text y="1.67" class="f">default</text><text x="8.016" y="1.67" class="f">progress</text><text x="17.034" y="1.67" class="f">bar:</text><text x="22.044" y="1.67" class="f">==========================================--------</text><text y="3.841" class="f">but</text><text x="4.008" y="3.841" class="f">you</text><text x="8.016" y="3.841" class="f">can</text><text x="12.024" y="3.841" class="f">style</text><text x="18.036" y="3.841" class="f">it:</text><text x="22.044" y="3.841" class="f">=========================================&gt;--------</text><text y="6.012" class="f">in</text><text x="3.006" y="6.012" class="f">any</text><text x="7.014" y="6.012" class="f">way</text><text x="11.022" y="6.012" class="f">you</text><text x="15.03" y="6.012" class="f">want:</text><text x="22.044" y="6.012" class="f">[########################################</text><text x="71.142" y="6.012" class="f">]</text><text x="73.146" y="6.012" class="f">(864/1024)</text></svg><svg x="2352"><use xlink:href="#a"/><text y="1.67" class="f">default</text><text x="8.016" y="1.67" class="f">progress</text><text x="17.034" y="1.67" class="f">bar:</text><text x="22.044" y="1.67" class="f">===========================================-------</text><text y="3.841" class="f">but</text><text x="4.008" y="3.841" class="f">you</text><text x="8.016" y="3.841" class="f">can</text><text x="12.024" y="3.841" class="f">style</text><text x="18.036" y="3.841" class="f">it:</text><text x="22.044" y="3.841" class="f">==========================================&gt;-------</text><text y="6.012" class="f">in</text><text x="3.006" y="6.012" class="f">any</text><text x="7.014" y="6.012" class="f">way</text><text x="11.022" y="6.012" class="f">you</text><text x="15.03" y="6.012" class="f">want:</text><text x="22.044" y="6.012" class="f">[##########################################</text><text x="71.142" y="6.012" class="f">]</text><text x="73.146" y="6.012" class="f">(896/1024)</text></svg><svg x="2436"><use xlink:href="#a"/><text y="1.67" class="f">default</text><text x="8.016" y="1.67" class="f">progress</text><text x="17.034" y="1.67" class="f">bar:</text><text x="22.044" y="1.67" class="f">=============================================-----</text><text y="3.841" class="f">but</text><text x="4.008" y="3.841" class="f">you</text><text x="8.016" y="3.841" class="f">can</text><text x="12.024" y="3.841" class="f">style</text><text x="18.036" y="3.841" class="f">it:</text><text x="22.044" y="3.841" class="f">============================================&gt;-----</text><text y="6.012" class="f">in</text><text x="3.006" y="6.012" class="f">any</text><text x="7.014" y="6.012" class="f">way</text><text x="11.022" y="6.012" class="f">you</text><text x="15.03" y="6.012" class="f">want:</text><text x="22.044" y="6.012" class="f">[###########################################</text><text x="71.142" y="6.012" class="f">]</text><text x="73.146" y="6.012" class="f">(928/1024)</text></svg><svg x="2520"><use xlink:href="#a"/><text y="1.67" class="f">default</text><text x="8.016" y="1.67" class="f">progress</text><text x="17.034" y="1.67" class="f">bar:</text><text x="22.044" y="1.67" class="f">==============================================----</text><text y="3.841" class="f">but</text><text x="4.008" y="3.841" class="f">you</text><text x="8.016" y="3.841" class="f">can</text><text x="12.024" y="3.841" class="f">style</text><text x="18.036" y="3.841" class="f">it:</text><text x="22.044" y="3.841" class="f">=============================================&gt;----</text><text y="6.012" class="f">in</text><text x="3.006" y="6.012" class="f">any</text><text x="7.014" y="6.012" class="f">way</text><text x="11.022" y="6.012" class="f">you</text><text x="15.03" y="6.012" class="f">want:</text><text x="22.044" y="6.012" class="f">[#############################################</text><text x="71.142" y="6.012" class="f">]</text><text x="73.146" y="6.012" class="f">(960/1024)</text></svg><svg x="2604"><use xlink:href="#a"/><text y="1.67" class="f">default</text><text x="8.016" y="1.67" class="f">progress</text><text x="17.034" y="1.67" class="f">bar:</text><text x="22.044" y="1.67" class="f">================================================--</text><text y="3.841" class="f">but</text><text x="4.008" y="3.841" class="f">you</text><text x="8.016" y="3.841" class="f">can</text><text x="12.024" y="3.841" class="f">style</text><text x="18.036" y="3.841" class="f">it:</text><text x="22.044" y="3.841" class="f">===============================================&gt;--</text><text y="6.012" class="f">in</text><text x="3.006" y="6.012" class="f">any</text><text x="7.014" y="6.012" class="f">way</text><text x="11.022" y="6.012" class="f">you</text><text x="15.03" y="6.012" class="f">want:</text><text x="22.044" y="6.012" class="f">[##############################################</text><text x="71.142" y="6.012" class="f">]</text><text x="73.146" y="6.012" class="f">(992/1024)</text></svg><svg x="2688"><use xlink:href="#a"/><text y="1.67" class="f">default</text><text x="8.016" y="1.67" class="f">progress</text><text x="17.034" y="1.67" class="f">bar:</text><text x="22.044" y="1.67" class="f">==================================================</text><text y="3.841" class="f">but</text><text x="4.008" y="3.841" class="f">you</text><text x="8.016" y="3.841" class="f">can</text><text x="12.024" y="3.841" class="f">style</text><text x="18.036" y="3.841" class="f">it:</text><text x="22.044" y="3.841" class="f">=================================================&gt;</text><text y="6.012" class="f">in</text><text x="3.006" y="6.012" class="f">any</text><text x="7.014" y="6.012" class="f">way</text><text x="11.022" y="6.012" class="f">you</text><text x="15.03" y="6.012" class="f">want:</text><text x="22.044" y="6.012" class="f">[################################################]</text><text x="73.146" y="6.012" class="f">(1024/1024</text></svg></svg></g></g></svg></svg>